<svg width="20" height="20" viewBox="0 0 20 20" fill="none" xmlns="http://www.w3.org/2000/svg">
<path d="M3.25001 10C3.25001 8.575 4.40834 7.41666 5.83334 7.41666H9.16667V5.83333H5.83334C3.53334 5.83333 1.66667 7.7 1.66667 10C1.66667 12.3 3.53334 14.1667 5.83334 14.1667H9.16667V12.5833H5.83334C4.40834 12.5833 3.25001 11.425 3.25001 10ZM6.66667 10.8333H13.3333V9.16666H6.66667V10.8333ZM14.1667 5.83333H10.8333V7.41666H14.1667C15.5917 7.41666 16.75 8.575 16.75 10C16.75 11.425 15.5917 12.5833 14.1667 12.5833H10.8333V14.1667H14.1667C16.4667 14.1667 18.3333 12.3 18.3333 10C18.3333 7.7 16.4667 5.83333 14.1667 5.83333Z" fill="#949494"/>
</svg>
