<svg width="20" height="20" viewBox="0 0 20 20" fill="none" xmlns="http://www.w3.org/2000/svg">
<g clip-path="url(#clip0_0_27)">
<path d="M10.0056 4.87225C7.16632 4.87225 4.87614 7.16166 4.87614 10C4.87614 12.8383 7.16632 15.1277 10.0056 15.1277C12.8449 15.1277 15.1351 12.8383 15.1351 10C15.1351 7.16166 12.8449 4.87225 10.0056 4.87225ZM10.0056 13.3337C8.17078 13.3337 6.67078 11.8387 6.67078 10C6.67078 8.16133 8.16632 6.6663 10.0056 6.6663C11.8449 6.6663 13.3404 8.16133 13.3404 10C13.3404 11.8387 11.8404 13.3337 10.0056 13.3337ZM16.5413 4.6625C16.5413 5.32746 16.0056 5.85853 15.3449 5.85853C14.6797 5.85853 14.1485 5.32299 14.1485 4.6625C14.1485 4.00201 14.6842 3.46647 15.3449 3.46647C16.0056 3.46647 16.5413 4.00201 16.5413 4.6625ZM19.9386 5.87638C19.8627 4.27424 19.4967 2.85507 18.3226 1.68582C17.1529 0.516568 15.7333 0.150619 14.1306 0.070289C12.4788 -0.0234297 7.52792 -0.0234297 5.87614 0.070289C4.27792 0.146156 2.85828 0.512105 1.68417 1.68136C0.510064 2.85061 0.148457 4.26978 0.0681 5.87192C-0.02565 7.52315 -0.02565 12.4724 0.0681 14.1236C0.143993 15.7258 0.510064 17.1449 1.68417 18.3142C2.85828 19.4834 4.27346 19.8494 5.87614 19.9297C7.52792 20.0234 12.4788 20.0234 14.1306 19.9297C15.7333 19.8538 17.1529 19.4879 18.3226 18.3142C19.4922 17.1449 19.8583 15.7258 19.9386 14.1236C20.0324 12.4724 20.0324 7.52761 19.9386 5.87638ZM17.8047 15.8953C17.4565 16.7701 16.7824 17.4439 15.9029 17.7965C14.586 18.3186 11.461 18.1981 10.0056 18.1981C8.55024 18.1981 5.42078 18.3142 4.10828 17.7965C3.23328 17.4484 2.55917 16.7745 2.20649 15.8953C1.68417 14.5788 1.80471 11.4549 1.80471 10C1.80471 8.54513 1.68864 5.41671 2.20649 4.10465C2.55471 3.22995 3.22881 2.55606 4.10828 2.2035C5.42524 1.68136 8.55024 1.80185 10.0056 1.80185C11.461 1.80185 14.5904 1.68582 15.9029 2.2035C16.7779 2.5516 17.452 3.22548 17.8047 4.10465C18.327 5.42118 18.2065 8.54513 18.2065 10C18.2065 11.4549 18.327 14.5833 17.8047 15.8953Z" fill="#949494"/>
</g>
<defs>
<clipPath id="clip0_0_27">
<rect width="20" height="20" fill="white"/>
</clipPath>
</defs>
</svg>
