<svg width="18" height="18" viewBox="0 0 18 18" fill="none" xmlns="http://www.w3.org/2000/svg">
<path d="M11.25 9C12.9075 9 14.25 7.6575 14.25 6C14.25 4.3425 12.9075 3 11.25 3C9.5925 3 8.25 4.3425 8.25 6C8.25 7.6575 9.5925 9 11.25 9ZM4.5 7.5V6C4.5 5.5875 4.1625 5.25 3.75 5.25C3.3375 5.25 3 5.5875 3 6V7.5H1.5C1.0875 7.5 0.75 7.8375 0.75 8.25C0.75 8.6625 1.0875 9 1.5 9H3V10.5C3 10.9125 3.3375 11.25 3.75 11.25C4.1625 11.25 4.5 10.9125 4.5 10.5V9H6C6.4125 9 6.75 8.6625 6.75 8.25C6.75 7.8375 6.4125 7.5 6 7.5H4.5ZM11.25 10.5C9.2475 10.5 5.25 11.505 5.25 13.5V14.25C5.25 14.6625 5.5875 15 6 15H16.5C16.9125 15 17.25 14.6625 17.25 14.25V13.5C17.25 11.505 13.2525 10.5 11.25 10.5Z" fill="white"/>
</svg>
