<svg width="20" height="20" viewBox="0 0 20 20" fill="none" xmlns="http://www.w3.org/2000/svg">
<path d="M17.9441 5.92633C17.9568 6.10399 17.9568 6.28168 17.9568 6.45934C17.9568 11.8781 13.8325 18.1218 6.29441 18.1218C3.97207 18.1218 1.81473 17.4491 0 16.2817C0.329961 16.3197 0.647187 16.3324 0.989844 16.3324C2.90605 16.3324 4.67004 15.6852 6.07867 14.5812C4.27664 14.5431 2.76648 13.3629 2.24617 11.7385C2.5 11.7766 2.75379 11.802 3.02031 11.802C3.38832 11.802 3.75637 11.7512 4.09898 11.6624C2.22082 11.2816 0.812148 9.63192 0.812148 7.63953V7.58879C1.35781 7.89336 1.99238 8.08371 2.66492 8.10906C1.56086 7.37301 0.837539 6.11668 0.837539 4.69535C0.837539 3.93395 1.04055 3.23598 1.3959 2.62684C3.41367 5.11414 6.44668 6.73848 9.84766 6.91617C9.78422 6.6116 9.74613 6.29438 9.74613 5.97711C9.74613 3.71821 11.5736 1.87813 13.8451 1.87813C15.0253 1.87813 16.0913 2.37305 16.84 3.17254C17.7664 2.99489 18.6547 2.65223 19.4416 2.1827C19.137 3.1345 18.4898 3.93399 17.6395 4.44157C18.4644 4.35278 19.2639 4.1243 19.9999 3.80707C19.4416 4.61922 18.7436 5.34254 17.9441 5.92633Z" fill="#949494"/>
</svg>
